<mxfile host="app.diagrams.net" modified="2024-03-30T11:54:47.095Z" agent="Mozilla/5.0 (Macintosh; Intel Mac OS X 10_15_7) AppleWebKit/537.36 (KHTML, like Gecko) Chrome/120.0.0.0 Whale/3.24.223.18 Safari/537.36" etag="xxiufQj8SUijZZe6MhDC" version="24.1.0" type="github">
  <diagram name="페이지-1" id="t3tGC_7ZUbPhZwxjExYe">
    <mxGraphModel dx="476" dy="906" grid="1" gridSize="10" guides="1" tooltips="1" connect="1" arrows="1" fold="1" page="1" pageScale="1" pageWidth="1169" pageHeight="827" math="0" shadow="0">
      <root>
        <mxCell id="0" />
        <mxCell id="1" parent="0" />
        <mxCell id="pjavsnHLvcbqXYeomyV3-1" value="" style="childLayout=tableLayout;recursiveResize=0;shadow=0;fillColor=#f5f5f5;strokeColor=none;opacity=10;fontColor=#333333;" parent="1" vertex="1">
          <mxGeometry x="190" y="360" width="480" height="328" as="geometry" />
        </mxCell>
        <mxCell id="pjavsnHLvcbqXYeomyV3-2" value="" style="shape=tableRow;horizontal=0;startSize=0;swimlaneHead=0;swimlaneBody=0;top=0;left=0;bottom=0;right=0;dropTarget=0;collapsible=0;recursiveResize=0;expand=0;fontStyle=0;fillColor=none;strokeColor=inherit;opacity=0;" parent="pjavsnHLvcbqXYeomyV3-1" vertex="1">
          <mxGeometry width="480" height="47" as="geometry" />
        </mxCell>
        <mxCell id="pjavsnHLvcbqXYeomyV3-3" value="time" style="connectable=0;recursiveResize=0;strokeColor=inherit;fillColor=none;align=center;whiteSpace=wrap;html=1;opacity=30;" parent="pjavsnHLvcbqXYeomyV3-2" vertex="1">
          <mxGeometry width="60" height="47" as="geometry">
            <mxRectangle width="60" height="47" as="alternateBounds" />
          </mxGeometry>
        </mxCell>
        <mxCell id="pjavsnHLvcbqXYeomyV3-4" value="" style="connectable=0;recursiveResize=0;strokeColor=inherit;fillColor=none;align=center;whiteSpace=wrap;html=1;opacity=30;" parent="pjavsnHLvcbqXYeomyV3-2" vertex="1">
          <mxGeometry x="60" width="60" height="47" as="geometry">
            <mxRectangle width="60" height="47" as="alternateBounds" />
          </mxGeometry>
        </mxCell>
        <mxCell id="pjavsnHLvcbqXYeomyV3-5" value="" style="connectable=0;recursiveResize=0;strokeColor=inherit;fillColor=none;align=center;whiteSpace=wrap;html=1;opacity=30;" parent="pjavsnHLvcbqXYeomyV3-2" vertex="1">
          <mxGeometry x="120" width="60" height="47" as="geometry">
            <mxRectangle width="60" height="47" as="alternateBounds" />
          </mxGeometry>
        </mxCell>
        <mxCell id="pjavsnHLvcbqXYeomyV3-6" style="connectable=0;recursiveResize=0;strokeColor=inherit;fillColor=none;align=center;whiteSpace=wrap;html=1;opacity=30;" parent="pjavsnHLvcbqXYeomyV3-2" vertex="1">
          <mxGeometry x="180" width="60" height="47" as="geometry">
            <mxRectangle width="60" height="47" as="alternateBounds" />
          </mxGeometry>
        </mxCell>
        <mxCell id="pjavsnHLvcbqXYeomyV3-7" style="connectable=0;recursiveResize=0;strokeColor=inherit;fillColor=none;align=center;whiteSpace=wrap;html=1;opacity=30;" parent="pjavsnHLvcbqXYeomyV3-2" vertex="1">
          <mxGeometry x="240" width="60" height="47" as="geometry">
            <mxRectangle width="60" height="47" as="alternateBounds" />
          </mxGeometry>
        </mxCell>
        <mxCell id="pjavsnHLvcbqXYeomyV3-8" style="connectable=0;recursiveResize=0;strokeColor=inherit;fillColor=none;align=center;whiteSpace=wrap;html=1;opacity=30;" parent="pjavsnHLvcbqXYeomyV3-2" vertex="1">
          <mxGeometry x="300" width="60" height="47" as="geometry">
            <mxRectangle width="60" height="47" as="alternateBounds" />
          </mxGeometry>
        </mxCell>
        <mxCell id="PU0dzUxy8LTT69XPLCky-1" style="connectable=0;recursiveResize=0;strokeColor=inherit;fillColor=none;align=center;whiteSpace=wrap;html=1;opacity=30;" vertex="1" parent="pjavsnHLvcbqXYeomyV3-2">
          <mxGeometry x="360" width="60" height="47" as="geometry">
            <mxRectangle width="60" height="47" as="alternateBounds" />
          </mxGeometry>
        </mxCell>
        <mxCell id="PU0dzUxy8LTT69XPLCky-6" style="connectable=0;recursiveResize=0;strokeColor=inherit;fillColor=none;align=center;whiteSpace=wrap;html=1;opacity=30;" vertex="1" parent="pjavsnHLvcbqXYeomyV3-2">
          <mxGeometry x="420" width="60" height="47" as="geometry">
            <mxRectangle width="60" height="47" as="alternateBounds" />
          </mxGeometry>
        </mxCell>
        <mxCell id="pjavsnHLvcbqXYeomyV3-12" style="shape=tableRow;horizontal=0;startSize=0;swimlaneHead=0;swimlaneBody=0;top=0;left=0;bottom=0;right=0;dropTarget=0;collapsible=0;recursiveResize=0;expand=0;fontStyle=0;fillColor=none;strokeColor=default;opacity=30;" parent="pjavsnHLvcbqXYeomyV3-1" vertex="1">
          <mxGeometry y="47" width="480" height="46" as="geometry" />
        </mxCell>
        <mxCell id="pjavsnHLvcbqXYeomyV3-13" value="event" style="connectable=0;recursiveResize=0;strokeColor=inherit;fillColor=none;align=center;whiteSpace=wrap;html=1;opacity=30;" parent="pjavsnHLvcbqXYeomyV3-12" vertex="1">
          <mxGeometry width="60" height="46" as="geometry">
            <mxRectangle width="60" height="46" as="alternateBounds" />
          </mxGeometry>
        </mxCell>
        <mxCell id="pjavsnHLvcbqXYeomyV3-14" value="" style="connectable=0;recursiveResize=0;strokeColor=default;fillColor=none;align=center;whiteSpace=wrap;html=1;opacity=30;" parent="pjavsnHLvcbqXYeomyV3-12" vertex="1">
          <mxGeometry x="60" width="60" height="46" as="geometry">
            <mxRectangle width="60" height="46" as="alternateBounds" />
          </mxGeometry>
        </mxCell>
        <mxCell id="pjavsnHLvcbqXYeomyV3-15" value="" style="connectable=0;recursiveResize=0;strokeColor=default;fillColor=none;align=center;whiteSpace=wrap;html=1;opacity=30;" parent="pjavsnHLvcbqXYeomyV3-12" vertex="1">
          <mxGeometry x="120" width="60" height="46" as="geometry">
            <mxRectangle width="60" height="46" as="alternateBounds" />
          </mxGeometry>
        </mxCell>
        <mxCell id="pjavsnHLvcbqXYeomyV3-16" style="connectable=0;recursiveResize=0;strokeColor=default;fillColor=none;align=center;whiteSpace=wrap;html=1;opacity=30;" parent="pjavsnHLvcbqXYeomyV3-12" vertex="1">
          <mxGeometry x="180" width="60" height="46" as="geometry">
            <mxRectangle width="60" height="46" as="alternateBounds" />
          </mxGeometry>
        </mxCell>
        <mxCell id="pjavsnHLvcbqXYeomyV3-17" style="connectable=0;recursiveResize=0;strokeColor=default;fillColor=none;align=center;whiteSpace=wrap;html=1;opacity=30;" parent="pjavsnHLvcbqXYeomyV3-12" vertex="1">
          <mxGeometry x="240" width="60" height="46" as="geometry">
            <mxRectangle width="60" height="46" as="alternateBounds" />
          </mxGeometry>
        </mxCell>
        <mxCell id="pjavsnHLvcbqXYeomyV3-18" style="connectable=0;recursiveResize=0;strokeColor=default;fillColor=none;align=center;whiteSpace=wrap;html=1;opacity=30;" parent="pjavsnHLvcbqXYeomyV3-12" vertex="1">
          <mxGeometry x="300" width="60" height="46" as="geometry">
            <mxRectangle width="60" height="46" as="alternateBounds" />
          </mxGeometry>
        </mxCell>
        <mxCell id="PU0dzUxy8LTT69XPLCky-2" style="connectable=0;recursiveResize=0;strokeColor=default;fillColor=none;align=center;whiteSpace=wrap;html=1;opacity=30;" vertex="1" parent="pjavsnHLvcbqXYeomyV3-12">
          <mxGeometry x="360" width="60" height="46" as="geometry">
            <mxRectangle width="60" height="46" as="alternateBounds" />
          </mxGeometry>
        </mxCell>
        <mxCell id="PU0dzUxy8LTT69XPLCky-7" style="connectable=0;recursiveResize=0;strokeColor=default;fillColor=none;align=center;whiteSpace=wrap;html=1;opacity=30;" vertex="1" parent="pjavsnHLvcbqXYeomyV3-12">
          <mxGeometry x="420" width="60" height="46" as="geometry">
            <mxRectangle width="60" height="46" as="alternateBounds" />
          </mxGeometry>
        </mxCell>
        <mxCell id="pjavsnHLvcbqXYeomyV3-22" style="shape=tableRow;horizontal=0;startSize=0;swimlaneHead=0;swimlaneBody=0;top=0;left=0;bottom=0;right=0;dropTarget=0;collapsible=0;recursiveResize=0;expand=0;fontStyle=0;fillColor=none;strokeColor=default;opacity=30;" parent="pjavsnHLvcbqXYeomyV3-1" vertex="1">
          <mxGeometry y="93" width="480" height="47" as="geometry" />
        </mxCell>
        <mxCell id="pjavsnHLvcbqXYeomyV3-23" value="window" style="connectable=0;recursiveResize=0;strokeColor=inherit;fillColor=none;align=center;whiteSpace=wrap;html=1;opacity=30;rowspan=5;colspan=1;" parent="pjavsnHLvcbqXYeomyV3-22" vertex="1">
          <mxGeometry width="60" height="235" as="geometry">
            <mxRectangle width="60" height="47" as="alternateBounds" />
          </mxGeometry>
        </mxCell>
        <mxCell id="pjavsnHLvcbqXYeomyV3-24" value="" style="connectable=0;recursiveResize=0;strokeColor=default;fillColor=none;align=center;whiteSpace=wrap;html=1;opacity=30;rowspan=5;colspan=1;" parent="pjavsnHLvcbqXYeomyV3-22" vertex="1">
          <mxGeometry x="60" width="60" height="235" as="geometry">
            <mxRectangle width="60" height="47" as="alternateBounds" />
          </mxGeometry>
        </mxCell>
        <mxCell id="pjavsnHLvcbqXYeomyV3-25" value="" style="connectable=0;recursiveResize=0;strokeColor=default;fillColor=none;align=center;whiteSpace=wrap;html=1;opacity=30;rowspan=5;colspan=1;" parent="pjavsnHLvcbqXYeomyV3-22" vertex="1">
          <mxGeometry x="120" width="60" height="235" as="geometry">
            <mxRectangle width="60" height="47" as="alternateBounds" />
          </mxGeometry>
        </mxCell>
        <mxCell id="pjavsnHLvcbqXYeomyV3-26" style="connectable=0;recursiveResize=0;strokeColor=default;fillColor=none;align=center;whiteSpace=wrap;html=1;opacity=30;rowspan=5;colspan=1;" parent="pjavsnHLvcbqXYeomyV3-22" vertex="1">
          <mxGeometry x="180" width="60" height="235" as="geometry">
            <mxRectangle width="60" height="47" as="alternateBounds" />
          </mxGeometry>
        </mxCell>
        <mxCell id="pjavsnHLvcbqXYeomyV3-27" style="connectable=0;recursiveResize=0;strokeColor=default;fillColor=none;align=center;whiteSpace=wrap;html=1;opacity=30;rowspan=5;colspan=1;" parent="pjavsnHLvcbqXYeomyV3-22" vertex="1">
          <mxGeometry x="240" width="60" height="235" as="geometry">
            <mxRectangle width="60" height="47" as="alternateBounds" />
          </mxGeometry>
        </mxCell>
        <mxCell id="pjavsnHLvcbqXYeomyV3-28" style="connectable=0;recursiveResize=0;strokeColor=default;fillColor=none;align=center;whiteSpace=wrap;html=1;opacity=30;rowspan=5;colspan=1;" parent="pjavsnHLvcbqXYeomyV3-22" vertex="1">
          <mxGeometry x="300" width="60" height="235" as="geometry">
            <mxRectangle width="60" height="47" as="alternateBounds" />
          </mxGeometry>
        </mxCell>
        <mxCell id="PU0dzUxy8LTT69XPLCky-3" style="connectable=0;recursiveResize=0;strokeColor=default;fillColor=none;align=center;whiteSpace=wrap;html=1;opacity=30;rowspan=5;colspan=1;" vertex="1" parent="pjavsnHLvcbqXYeomyV3-22">
          <mxGeometry x="360" width="60" height="235" as="geometry">
            <mxRectangle width="60" height="47" as="alternateBounds" />
          </mxGeometry>
        </mxCell>
        <mxCell id="PU0dzUxy8LTT69XPLCky-8" style="connectable=0;recursiveResize=0;strokeColor=default;fillColor=none;align=center;whiteSpace=wrap;html=1;opacity=30;rowspan=5;colspan=1;" vertex="1" parent="pjavsnHLvcbqXYeomyV3-22">
          <mxGeometry x="420" width="60" height="235" as="geometry">
            <mxRectangle width="60" height="47" as="alternateBounds" />
          </mxGeometry>
        </mxCell>
        <mxCell id="pjavsnHLvcbqXYeomyV3-32" style="shape=tableRow;horizontal=0;startSize=0;swimlaneHead=0;swimlaneBody=0;top=0;left=0;bottom=0;right=0;dropTarget=0;collapsible=0;recursiveResize=0;expand=0;fontStyle=0;fillColor=none;strokeColor=default;opacity=30;" parent="pjavsnHLvcbqXYeomyV3-1" vertex="1">
          <mxGeometry y="140" width="480" height="47" as="geometry" />
        </mxCell>
        <mxCell id="pjavsnHLvcbqXYeomyV3-33" style="connectable=0;recursiveResize=0;strokeColor=inherit;fillColor=none;align=center;whiteSpace=wrap;html=1;opacity=30;" parent="pjavsnHLvcbqXYeomyV3-32" vertex="1" visible="0">
          <mxGeometry width="60" height="47" as="geometry">
            <mxRectangle width="60" height="47" as="alternateBounds" />
          </mxGeometry>
        </mxCell>
        <mxCell id="pjavsnHLvcbqXYeomyV3-34" style="connectable=0;recursiveResize=0;strokeColor=default;fillColor=none;align=center;whiteSpace=wrap;html=1;opacity=30;" parent="pjavsnHLvcbqXYeomyV3-32" vertex="1" visible="0">
          <mxGeometry x="60" width="60" height="47" as="geometry">
            <mxRectangle width="60" height="47" as="alternateBounds" />
          </mxGeometry>
        </mxCell>
        <mxCell id="pjavsnHLvcbqXYeomyV3-35" style="connectable=0;recursiveResize=0;strokeColor=default;fillColor=none;align=center;whiteSpace=wrap;html=1;opacity=30;" parent="pjavsnHLvcbqXYeomyV3-32" vertex="1" visible="0">
          <mxGeometry x="120" width="60" height="47" as="geometry">
            <mxRectangle width="60" height="47" as="alternateBounds" />
          </mxGeometry>
        </mxCell>
        <mxCell id="pjavsnHLvcbqXYeomyV3-36" style="connectable=0;recursiveResize=0;strokeColor=default;fillColor=none;align=center;whiteSpace=wrap;html=1;opacity=30;" parent="pjavsnHLvcbqXYeomyV3-32" vertex="1" visible="0">
          <mxGeometry x="180" width="60" height="47" as="geometry">
            <mxRectangle width="60" height="47" as="alternateBounds" />
          </mxGeometry>
        </mxCell>
        <mxCell id="pjavsnHLvcbqXYeomyV3-37" style="connectable=0;recursiveResize=0;strokeColor=default;fillColor=none;align=center;whiteSpace=wrap;html=1;opacity=30;" parent="pjavsnHLvcbqXYeomyV3-32" vertex="1" visible="0">
          <mxGeometry x="240" width="60" height="47" as="geometry">
            <mxRectangle width="60" height="47" as="alternateBounds" />
          </mxGeometry>
        </mxCell>
        <mxCell id="pjavsnHLvcbqXYeomyV3-38" style="connectable=0;recursiveResize=0;strokeColor=default;fillColor=none;align=center;whiteSpace=wrap;html=1;opacity=30;" parent="pjavsnHLvcbqXYeomyV3-32" vertex="1" visible="0">
          <mxGeometry x="300" width="60" height="47" as="geometry">
            <mxRectangle width="60" height="47" as="alternateBounds" />
          </mxGeometry>
        </mxCell>
        <mxCell id="PU0dzUxy8LTT69XPLCky-4" style="connectable=0;recursiveResize=0;strokeColor=default;fillColor=none;align=center;whiteSpace=wrap;html=1;opacity=30;" vertex="1" visible="0" parent="pjavsnHLvcbqXYeomyV3-32">
          <mxGeometry x="360" width="60" height="47" as="geometry">
            <mxRectangle width="60" height="47" as="alternateBounds" />
          </mxGeometry>
        </mxCell>
        <mxCell id="PU0dzUxy8LTT69XPLCky-9" style="connectable=0;recursiveResize=0;strokeColor=default;fillColor=none;align=center;whiteSpace=wrap;html=1;opacity=30;" vertex="1" visible="0" parent="pjavsnHLvcbqXYeomyV3-32">
          <mxGeometry x="420" width="60" height="47" as="geometry">
            <mxRectangle width="60" height="47" as="alternateBounds" />
          </mxGeometry>
        </mxCell>
        <mxCell id="pjavsnHLvcbqXYeomyV3-42" style="shape=tableRow;horizontal=0;startSize=0;swimlaneHead=0;swimlaneBody=0;top=0;left=0;bottom=0;right=0;dropTarget=0;collapsible=0;recursiveResize=0;expand=0;fontStyle=0;fillColor=none;strokeColor=default;opacity=30;" parent="pjavsnHLvcbqXYeomyV3-1" vertex="1">
          <mxGeometry y="187" width="480" height="47" as="geometry" />
        </mxCell>
        <mxCell id="pjavsnHLvcbqXYeomyV3-43" style="connectable=0;recursiveResize=0;strokeColor=inherit;fillColor=none;align=center;whiteSpace=wrap;html=1;opacity=30;" parent="pjavsnHLvcbqXYeomyV3-42" vertex="1" visible="0">
          <mxGeometry width="60" height="47" as="geometry">
            <mxRectangle width="60" height="47" as="alternateBounds" />
          </mxGeometry>
        </mxCell>
        <mxCell id="pjavsnHLvcbqXYeomyV3-44" style="connectable=0;recursiveResize=0;strokeColor=default;fillColor=none;align=center;whiteSpace=wrap;html=1;opacity=30;" parent="pjavsnHLvcbqXYeomyV3-42" vertex="1" visible="0">
          <mxGeometry x="60" width="60" height="47" as="geometry">
            <mxRectangle width="60" height="47" as="alternateBounds" />
          </mxGeometry>
        </mxCell>
        <mxCell id="pjavsnHLvcbqXYeomyV3-45" style="connectable=0;recursiveResize=0;strokeColor=default;fillColor=none;align=center;whiteSpace=wrap;html=1;opacity=30;" parent="pjavsnHLvcbqXYeomyV3-42" vertex="1" visible="0">
          <mxGeometry x="120" width="60" height="47" as="geometry">
            <mxRectangle width="60" height="47" as="alternateBounds" />
          </mxGeometry>
        </mxCell>
        <mxCell id="pjavsnHLvcbqXYeomyV3-46" style="connectable=0;recursiveResize=0;strokeColor=default;fillColor=none;align=center;whiteSpace=wrap;html=1;opacity=30;" parent="pjavsnHLvcbqXYeomyV3-42" vertex="1" visible="0">
          <mxGeometry x="180" width="60" height="47" as="geometry">
            <mxRectangle width="60" height="47" as="alternateBounds" />
          </mxGeometry>
        </mxCell>
        <mxCell id="pjavsnHLvcbqXYeomyV3-47" style="connectable=0;recursiveResize=0;strokeColor=default;fillColor=none;align=center;whiteSpace=wrap;html=1;opacity=30;" parent="pjavsnHLvcbqXYeomyV3-42" vertex="1" visible="0">
          <mxGeometry x="240" width="60" height="47" as="geometry">
            <mxRectangle width="60" height="47" as="alternateBounds" />
          </mxGeometry>
        </mxCell>
        <mxCell id="pjavsnHLvcbqXYeomyV3-48" style="connectable=0;recursiveResize=0;strokeColor=default;fillColor=none;align=center;whiteSpace=wrap;html=1;opacity=30;" parent="pjavsnHLvcbqXYeomyV3-42" vertex="1" visible="0">
          <mxGeometry x="300" width="60" height="47" as="geometry">
            <mxRectangle width="60" height="47" as="alternateBounds" />
          </mxGeometry>
        </mxCell>
        <mxCell id="PU0dzUxy8LTT69XPLCky-5" style="connectable=0;recursiveResize=0;strokeColor=default;fillColor=none;align=center;whiteSpace=wrap;html=1;opacity=30;" vertex="1" visible="0" parent="pjavsnHLvcbqXYeomyV3-42">
          <mxGeometry x="360" width="60" height="47" as="geometry">
            <mxRectangle width="60" height="47" as="alternateBounds" />
          </mxGeometry>
        </mxCell>
        <mxCell id="PU0dzUxy8LTT69XPLCky-10" style="connectable=0;recursiveResize=0;strokeColor=default;fillColor=none;align=center;whiteSpace=wrap;html=1;opacity=30;" vertex="1" visible="0" parent="pjavsnHLvcbqXYeomyV3-42">
          <mxGeometry x="420" width="60" height="47" as="geometry">
            <mxRectangle width="60" height="47" as="alternateBounds" />
          </mxGeometry>
        </mxCell>
        <mxCell id="PU0dzUxy8LTT69XPLCky-21" style="shape=tableRow;horizontal=0;startSize=0;swimlaneHead=0;swimlaneBody=0;top=0;left=0;bottom=0;right=0;dropTarget=0;collapsible=0;recursiveResize=0;expand=0;fontStyle=0;fillColor=none;strokeColor=default;opacity=30;" vertex="1" parent="pjavsnHLvcbqXYeomyV3-1">
          <mxGeometry y="234" width="480" height="47" as="geometry" />
        </mxCell>
        <mxCell id="PU0dzUxy8LTT69XPLCky-22" style="connectable=0;recursiveResize=0;strokeColor=inherit;fillColor=none;align=center;whiteSpace=wrap;html=1;opacity=30;" vertex="1" visible="0" parent="PU0dzUxy8LTT69XPLCky-21">
          <mxGeometry width="60" height="47" as="geometry">
            <mxRectangle width="60" height="47" as="alternateBounds" />
          </mxGeometry>
        </mxCell>
        <mxCell id="PU0dzUxy8LTT69XPLCky-23" style="connectable=0;recursiveResize=0;strokeColor=default;fillColor=none;align=center;whiteSpace=wrap;html=1;opacity=30;" vertex="1" visible="0" parent="PU0dzUxy8LTT69XPLCky-21">
          <mxGeometry x="60" width="60" height="47" as="geometry">
            <mxRectangle width="60" height="47" as="alternateBounds" />
          </mxGeometry>
        </mxCell>
        <mxCell id="PU0dzUxy8LTT69XPLCky-24" style="connectable=0;recursiveResize=0;strokeColor=default;fillColor=none;align=center;whiteSpace=wrap;html=1;opacity=30;" vertex="1" visible="0" parent="PU0dzUxy8LTT69XPLCky-21">
          <mxGeometry x="120" width="60" height="47" as="geometry">
            <mxRectangle width="60" height="47" as="alternateBounds" />
          </mxGeometry>
        </mxCell>
        <mxCell id="PU0dzUxy8LTT69XPLCky-25" style="connectable=0;recursiveResize=0;strokeColor=default;fillColor=none;align=center;whiteSpace=wrap;html=1;opacity=30;" vertex="1" visible="0" parent="PU0dzUxy8LTT69XPLCky-21">
          <mxGeometry x="180" width="60" height="47" as="geometry">
            <mxRectangle width="60" height="47" as="alternateBounds" />
          </mxGeometry>
        </mxCell>
        <mxCell id="PU0dzUxy8LTT69XPLCky-26" style="connectable=0;recursiveResize=0;strokeColor=default;fillColor=none;align=center;whiteSpace=wrap;html=1;opacity=30;" vertex="1" visible="0" parent="PU0dzUxy8LTT69XPLCky-21">
          <mxGeometry x="240" width="60" height="47" as="geometry">
            <mxRectangle width="60" height="47" as="alternateBounds" />
          </mxGeometry>
        </mxCell>
        <mxCell id="PU0dzUxy8LTT69XPLCky-27" style="connectable=0;recursiveResize=0;strokeColor=default;fillColor=none;align=center;whiteSpace=wrap;html=1;opacity=30;" vertex="1" visible="0" parent="PU0dzUxy8LTT69XPLCky-21">
          <mxGeometry x="300" width="60" height="47" as="geometry">
            <mxRectangle width="60" height="47" as="alternateBounds" />
          </mxGeometry>
        </mxCell>
        <mxCell id="PU0dzUxy8LTT69XPLCky-28" style="connectable=0;recursiveResize=0;strokeColor=default;fillColor=none;align=center;whiteSpace=wrap;html=1;opacity=30;" vertex="1" visible="0" parent="PU0dzUxy8LTT69XPLCky-21">
          <mxGeometry x="360" width="60" height="47" as="geometry">
            <mxRectangle width="60" height="47" as="alternateBounds" />
          </mxGeometry>
        </mxCell>
        <mxCell id="PU0dzUxy8LTT69XPLCky-29" style="connectable=0;recursiveResize=0;strokeColor=default;fillColor=none;align=center;whiteSpace=wrap;html=1;opacity=30;" vertex="1" visible="0" parent="PU0dzUxy8LTT69XPLCky-21">
          <mxGeometry x="420" width="60" height="47" as="geometry">
            <mxRectangle width="60" height="47" as="alternateBounds" />
          </mxGeometry>
        </mxCell>
        <mxCell id="PU0dzUxy8LTT69XPLCky-30" style="shape=tableRow;horizontal=0;startSize=0;swimlaneHead=0;swimlaneBody=0;top=0;left=0;bottom=0;right=0;dropTarget=0;collapsible=0;recursiveResize=0;expand=0;fontStyle=0;fillColor=none;strokeColor=default;opacity=30;" vertex="1" parent="pjavsnHLvcbqXYeomyV3-1">
          <mxGeometry y="281" width="480" height="47" as="geometry" />
        </mxCell>
        <mxCell id="PU0dzUxy8LTT69XPLCky-31" style="connectable=0;recursiveResize=0;strokeColor=inherit;fillColor=none;align=center;whiteSpace=wrap;html=1;opacity=30;" vertex="1" visible="0" parent="PU0dzUxy8LTT69XPLCky-30">
          <mxGeometry width="60" height="47" as="geometry">
            <mxRectangle width="60" height="47" as="alternateBounds" />
          </mxGeometry>
        </mxCell>
        <mxCell id="PU0dzUxy8LTT69XPLCky-32" style="connectable=0;recursiveResize=0;strokeColor=default;fillColor=none;align=center;whiteSpace=wrap;html=1;opacity=30;" vertex="1" visible="0" parent="PU0dzUxy8LTT69XPLCky-30">
          <mxGeometry x="60" width="60" height="47" as="geometry">
            <mxRectangle width="60" height="47" as="alternateBounds" />
          </mxGeometry>
        </mxCell>
        <mxCell id="PU0dzUxy8LTT69XPLCky-33" style="connectable=0;recursiveResize=0;strokeColor=default;fillColor=none;align=center;whiteSpace=wrap;html=1;opacity=30;" vertex="1" visible="0" parent="PU0dzUxy8LTT69XPLCky-30">
          <mxGeometry x="120" width="60" height="47" as="geometry">
            <mxRectangle width="60" height="47" as="alternateBounds" />
          </mxGeometry>
        </mxCell>
        <mxCell id="PU0dzUxy8LTT69XPLCky-34" style="connectable=0;recursiveResize=0;strokeColor=default;fillColor=none;align=center;whiteSpace=wrap;html=1;opacity=30;" vertex="1" visible="0" parent="PU0dzUxy8LTT69XPLCky-30">
          <mxGeometry x="180" width="60" height="47" as="geometry">
            <mxRectangle width="60" height="47" as="alternateBounds" />
          </mxGeometry>
        </mxCell>
        <mxCell id="PU0dzUxy8LTT69XPLCky-35" style="connectable=0;recursiveResize=0;strokeColor=default;fillColor=none;align=center;whiteSpace=wrap;html=1;opacity=30;" vertex="1" visible="0" parent="PU0dzUxy8LTT69XPLCky-30">
          <mxGeometry x="240" width="60" height="47" as="geometry">
            <mxRectangle width="60" height="47" as="alternateBounds" />
          </mxGeometry>
        </mxCell>
        <mxCell id="PU0dzUxy8LTT69XPLCky-36" style="connectable=0;recursiveResize=0;strokeColor=default;fillColor=none;align=center;whiteSpace=wrap;html=1;opacity=30;" vertex="1" visible="0" parent="PU0dzUxy8LTT69XPLCky-30">
          <mxGeometry x="300" width="60" height="47" as="geometry">
            <mxRectangle width="60" height="47" as="alternateBounds" />
          </mxGeometry>
        </mxCell>
        <mxCell id="PU0dzUxy8LTT69XPLCky-37" style="connectable=0;recursiveResize=0;strokeColor=default;fillColor=none;align=center;whiteSpace=wrap;html=1;opacity=30;" vertex="1" visible="0" parent="PU0dzUxy8LTT69XPLCky-30">
          <mxGeometry x="360" width="60" height="47" as="geometry">
            <mxRectangle width="60" height="47" as="alternateBounds" />
          </mxGeometry>
        </mxCell>
        <mxCell id="PU0dzUxy8LTT69XPLCky-38" style="connectable=0;recursiveResize=0;strokeColor=default;fillColor=none;align=center;whiteSpace=wrap;html=1;opacity=30;" vertex="1" visible="0" parent="PU0dzUxy8LTT69XPLCky-30">
          <mxGeometry x="420" width="60" height="47" as="geometry">
            <mxRectangle width="60" height="47" as="alternateBounds" />
          </mxGeometry>
        </mxCell>
        <mxCell id="pjavsnHLvcbqXYeomyV3-52" value="t10" style="text;html=1;align=center;verticalAlign=middle;whiteSpace=wrap;rounded=0;opacity=30;strokeColor=none;" parent="1" vertex="1">
          <mxGeometry x="280" y="370" width="60" height="30" as="geometry" />
        </mxCell>
        <mxCell id="pjavsnHLvcbqXYeomyV3-53" value="t20" style="text;html=1;align=center;verticalAlign=middle;whiteSpace=wrap;rounded=0;opacity=30;strokeColor=none;" parent="1" vertex="1">
          <mxGeometry x="340" y="370" width="60" height="30" as="geometry" />
        </mxCell>
        <mxCell id="pjavsnHLvcbqXYeomyV3-54" value="t30" style="text;html=1;align=center;verticalAlign=middle;whiteSpace=wrap;rounded=0;opacity=30;strokeColor=none;" parent="1" vertex="1">
          <mxGeometry x="400" y="370" width="60" height="30" as="geometry" />
        </mxCell>
        <mxCell id="pjavsnHLvcbqXYeomyV3-55" value="t40" style="text;html=1;align=center;verticalAlign=middle;whiteSpace=wrap;rounded=0;opacity=30;strokeColor=none;" parent="1" vertex="1">
          <mxGeometry x="460" y="370" width="60" height="30" as="geometry" />
        </mxCell>
        <mxCell id="pjavsnHLvcbqXYeomyV3-58" value="a" style="ellipse;whiteSpace=wrap;html=1;fillColor=#97D077;strokeColor=none;" parent="1" vertex="1">
          <mxGeometry x="327.5" y="410" width="25" height="20" as="geometry" />
        </mxCell>
        <mxCell id="pjavsnHLvcbqXYeomyV3-64" value="&lt;font color=&quot;#97d077&quot;&gt;w1&lt;/font&gt;" style="text;html=1;align=center;verticalAlign=middle;whiteSpace=wrap;rounded=0;" parent="1" vertex="1">
          <mxGeometry x="265" y="450" width="60" height="30" as="geometry" />
        </mxCell>
        <mxCell id="pjavsnHLvcbqXYeomyV3-72" value="b" style="ellipse;whiteSpace=wrap;html=1;fillColor=#e1d5e7;strokeColor=none;" parent="1" vertex="1">
          <mxGeometry x="387.5" y="430" width="25" height="20" as="geometry" />
        </mxCell>
        <mxCell id="PU0dzUxy8LTT69XPLCky-11" value="" style="shape=crossbar;whiteSpace=wrap;html=1;rounded=1;strokeWidth=3;fillColor=#d5e8d4;strokeColor=#82b366;" vertex="1" parent="1">
          <mxGeometry x="250" y="460" width="90" height="20" as="geometry" />
        </mxCell>
        <mxCell id="PU0dzUxy8LTT69XPLCky-12" value="c" style="ellipse;whiteSpace=wrap;html=1;fillColor=#97D077;strokeColor=none;" vertex="1" parent="1">
          <mxGeometry x="450" y="410" width="25" height="20" as="geometry" />
        </mxCell>
        <mxCell id="PU0dzUxy8LTT69XPLCky-13" value="d" style="ellipse;whiteSpace=wrap;html=1;fillColor=#e1d5e7;strokeColor=none;" vertex="1" parent="1">
          <mxGeometry x="524" y="430" width="25" height="20" as="geometry" />
        </mxCell>
        <mxCell id="PU0dzUxy8LTT69XPLCky-14" value="e" style="ellipse;whiteSpace=wrap;html=1;fillColor=#97D077;strokeColor=none;" vertex="1" parent="1">
          <mxGeometry x="568" y="410" width="25" height="20" as="geometry" />
        </mxCell>
        <mxCell id="PU0dzUxy8LTT69XPLCky-15" value="t50" style="text;html=1;align=center;verticalAlign=middle;whiteSpace=wrap;rounded=0;opacity=30;strokeColor=none;" vertex="1" parent="1">
          <mxGeometry x="520" y="370" width="60" height="30" as="geometry" />
        </mxCell>
        <mxCell id="PU0dzUxy8LTT69XPLCky-16" value="t60" style="text;html=1;align=center;verticalAlign=middle;whiteSpace=wrap;rounded=0;opacity=30;strokeColor=none;" vertex="1" parent="1">
          <mxGeometry x="580" y="370" width="60" height="30" as="geometry" />
        </mxCell>
        <mxCell id="PU0dzUxy8LTT69XPLCky-17" value="" style="shape=crossbar;whiteSpace=wrap;html=1;rounded=1;strokeWidth=3;fillColor=#e1d5e7;strokeColor=#9673a6;" vertex="1" parent="1">
          <mxGeometry x="250" y="483" width="150" height="20" as="geometry" />
        </mxCell>
        <mxCell id="PU0dzUxy8LTT69XPLCky-18" value="" style="shape=crossbar;whiteSpace=wrap;html=1;rounded=1;strokeWidth=3;fillColor=#d5e8d4;strokeColor=#82b366;" vertex="1" parent="1">
          <mxGeometry x="280" y="510" width="180" height="20" as="geometry" />
        </mxCell>
        <mxCell id="PU0dzUxy8LTT69XPLCky-19" value="" style="shape=crossbar;whiteSpace=wrap;html=1;rounded=1;strokeWidth=3;fillColor=#e1d5e7;strokeColor=#9673a6;" vertex="1" parent="1">
          <mxGeometry x="357" y="557" width="180" height="20" as="geometry" />
        </mxCell>
        <mxCell id="PU0dzUxy8LTT69XPLCky-20" value="" style="shape=crossbar;whiteSpace=wrap;html=1;rounded=1;strokeWidth=3;fillColor=#d5e8d4;strokeColor=#82b366;" vertex="1" parent="1">
          <mxGeometry x="343" y="532" width="180" height="20" as="geometry" />
        </mxCell>
        <mxCell id="PU0dzUxy8LTT69XPLCky-39" value="" style="shape=crossbar;whiteSpace=wrap;html=1;rounded=1;strokeWidth=3;fillColor=#d5e8d4;strokeColor=#82b366;" vertex="1" parent="1">
          <mxGeometry x="401" y="580" width="180" height="20" as="geometry" />
        </mxCell>
        <mxCell id="PU0dzUxy8LTT69XPLCky-41" value="" style="shape=crossbar;whiteSpace=wrap;html=1;rounded=1;strokeWidth=3;fillColor=#e1d5e7;strokeColor=#9673a6;" vertex="1" parent="1">
          <mxGeometry x="405" y="606" width="180" height="20" as="geometry" />
        </mxCell>
        <mxCell id="PU0dzUxy8LTT69XPLCky-42" value="" style="shape=crossbar;whiteSpace=wrap;html=1;rounded=1;strokeWidth=3;fillColor=#d5e8d4;strokeColor=#82b366;" vertex="1" parent="1">
          <mxGeometry x="468" y="630" width="180" height="20" as="geometry" />
        </mxCell>
        <mxCell id="PU0dzUxy8LTT69XPLCky-43" value="&lt;font color=&quot;#cda2be&quot;&gt;w2&lt;/font&gt;" style="text;html=1;align=center;verticalAlign=middle;whiteSpace=wrap;rounded=0;" vertex="1" parent="1">
          <mxGeometry x="292.5" y="473" width="60" height="30" as="geometry" />
        </mxCell>
        <mxCell id="PU0dzUxy8LTT69XPLCky-44" value="&lt;font color=&quot;#97d077&quot;&gt;w3&lt;/font&gt;" style="text;html=1;align=center;verticalAlign=middle;whiteSpace=wrap;rounded=0;" vertex="1" parent="1">
          <mxGeometry x="352.5" y="500" width="60" height="30" as="geometry" />
        </mxCell>
        <mxCell id="PU0dzUxy8LTT69XPLCky-45" value="&lt;font color=&quot;#97d077&quot;&gt;w4&lt;/font&gt;" style="text;html=1;align=center;verticalAlign=middle;whiteSpace=wrap;rounded=0;" vertex="1" parent="1">
          <mxGeometry x="408" y="522" width="60" height="30" as="geometry" />
        </mxCell>
        <mxCell id="PU0dzUxy8LTT69XPLCky-46" value="&lt;font color=&quot;#cda2be&quot;&gt;w5&lt;/font&gt;" style="text;html=1;align=center;verticalAlign=middle;whiteSpace=wrap;rounded=0;" vertex="1" parent="1">
          <mxGeometry x="432.5" y="547" width="60" height="30" as="geometry" />
        </mxCell>
        <mxCell id="PU0dzUxy8LTT69XPLCky-47" value="&lt;font color=&quot;#97d077&quot;&gt;w6&lt;/font&gt;" style="text;html=1;align=center;verticalAlign=middle;whiteSpace=wrap;rounded=0;" vertex="1" parent="1">
          <mxGeometry x="468" y="570" width="60" height="30" as="geometry" />
        </mxCell>
        <mxCell id="PU0dzUxy8LTT69XPLCky-48" value="&lt;font color=&quot;#cda2be&quot;&gt;w7&lt;/font&gt;" style="text;html=1;align=center;verticalAlign=middle;whiteSpace=wrap;rounded=0;" vertex="1" parent="1">
          <mxGeometry x="477" y="596" width="60" height="30" as="geometry" />
        </mxCell>
        <mxCell id="PU0dzUxy8LTT69XPLCky-49" value="&lt;font color=&quot;#97d077&quot;&gt;w8&lt;/font&gt;" style="text;html=1;align=center;verticalAlign=middle;whiteSpace=wrap;rounded=0;" vertex="1" parent="1">
          <mxGeometry x="533" y="620" width="60" height="30" as="geometry" />
        </mxCell>
      </root>
    </mxGraphModel>
  </diagram>
</mxfile>
